<?xml version="1.0" standalone="no"?>
<!DOCTYPE svg PUBLIC "-//W3C//DTD SVG 20010904//EN"
 "http://www.w3.org/TR/2001/REC-SVG-20010904/DTD/svg10.dtd">
<svg version="1.0" xmlns="http://www.w3.org/2000/svg"
 width="526.000000pt" height="526.000000pt" viewBox="0 0 526.000000 526.000000"
 preserveAspectRatio="xMidYMid meet">
<metadata>
Created by potrace 1.14, written by Peter Selinger 2001-2017
</metadata>
<g transform="translate(0.000000,526.000000) scale(0.100000,-0.100000)"
fill="#000000" stroke="none">
<path d="M2470 4793 c-870 -67 -1634 -627 -1941 -1422 -92 -237 -131 -446
-135 -721 -4 -280 27 -484 112 -731 31 -91 49 -134 108 -261 14 -31 26 -61 26
-65 0 -8 -103 -253 -130 -308 -33 -70 -78 -175 -74 -175 2 0 20 18 40 40 81
89 226 128 354 95 62 -16 69 -21 148 -106 286 -306 680 -534 1109 -643 333
-85 712 -91 1053 -16 467 103 874 335 1192 679 51 55 63 62 130 81 40 11 91
20 113 20 97 0 225 -58 275 -125 14 -18 26 -32 28 -31 1 2 -15 41 -36 87 -21
46 -72 160 -111 252 l-73 168 32 67 c221 461 272 963 150 1453 -72 292 -215
578 -410 824 -136 172 -370 378 -573 504 -63 39 -279 151 -292 151 -3 0 -24 9
-48 19 -114 53 -364 121 -539 147 -97 14 -409 25 -508 17z"/>
</g>
</svg>
